<?xml version="1.0" encoding="utf-8"?>
<!-- Generator: Adobe Illustrator 24.2.0, SVG Export Plug-In . SVG Version: 6.00 Build 0)  -->
<svg version="1.1" id="Layer_1" xmlns="http://www.w3.org/2000/svg" xmlns:xlink="http://www.w3.org/1999/xlink" x="0px" y="0px"
	 viewBox="0 0 438 108" style="enable-background:new 0 0 438 108;" xml:space="preserve">
<style type="text/css">
	.st0{fill:#FFDAC1;}
	.st1{font-family:'Helvetica-Bold';}
	.st2{font-size:72px;}
</style>
<path d="M12.07,46.12c0-6.48,5.23-11.74,11.67-11.74s11.67,5.25,11.67,11.74s-5.23,11.74-11.67,11.74S12.07,52.6,12.07,46.12"/>
<ellipse cx="80.44" cy="46.12" rx="11.67" ry="11.74"/>
<ellipse class="st0" cx="24.02" cy="46.4" rx="4.17" ry="4.19"/>
<ellipse class="st0" cx="80.44" cy="46.12" rx="4.17" ry="4.19"/>
<path d="M81,44.45c0-10.68-5.73-20-14.26-25.05l0.01,0c0,0-0.02-0.01-0.02-0.01c-1.05-0.62-13.91-4.79-17.03-9.02
	c-0.14-0.19-0.44-0.06-0.38,0.17c0.32,1.33,1.01,3.23,2.47,4.57c0.11,0.1,0.04,0.28-0.1,0.28C35.9,15.61,23.19,28.54,23.19,44.45
	c0,7.33,2.71,14.02,7.16,19.14c0.03,0.04,0.05,0.09,0.03,0.14c-0.34,1.53-0.53,3.12-0.53,4.76c0,12.04,9.71,21.79,21.68,21.79
	s21.68-9.76,21.68-21.79c0-1.28-0.12-2.54-0.33-3.76c-0.01-0.05,0.01-0.1,0.04-0.13C77.92,59.35,81,52.26,81,44.45z"/>
<path class="st0" d="M72.1,48.92c0-6.17-4.98-11.18-11.12-11.18c-3.64,0-6.87,1.77-8.89,4.49c-2.03-2.72-5.25-4.49-8.89-4.49
	c-6.14,0-11.12,5-11.12,11.18c0,5.34,3.72,9.79,8.69,10.9c-1.96,2.44-3.14,5.55-3.14,8.94c0,7.87,6.35,14.25,14.17,14.25
	s14.17-6.38,14.17-14.25c0-3.34-1.15-6.41-3.06-8.84C68.14,58.99,72.1,54.42,72.1,48.92z"/>
<ellipse cx="60.91" cy="48.74" rx="3.93" ry="3.95"/>
<ellipse cx="43.16" cy="48.78" rx="3.93" ry="3.95"/>
<path d="M70.16,68.48c0,0-9.37,8.39-20.33,3.33c-0.34-0.16-0.66,0.25-0.43,0.54c1.39,1.73,5.62,4.88,17.75,4.25"/>
<text transform="matrix(1 0 0 1 100.6749 80.5874)" class="st1 st2">BonoBud</text>
</svg>
