<svg id="a548b039-b126-4b05-aa39-a0278a86b08d" data-name="Layer 1" xmlns="http://www.w3.org/2000/svg" viewBox="0 0 438 108"><defs><style>.ba2e1eda-80d1-4275-b094-df799533542c{fill:#ffdac1;}.ead0e6b5-fc37-4b74-b8cf-8bd26576efe8{isolation:isolate;}</style></defs><path d="M12.07,46.12A11.67021,11.67021,0,1,1,23.74,57.86,11.71092,11.71092,0,0,1,12.07,46.12"/><ellipse cx="80.44" cy="46.12" rx="11.67" ry="11.74"/><ellipse class="ba2e1eda-80d1-4275-b094-df799533542c" cx="24.02" cy="46.4" rx="4.17" ry="4.19"/><ellipse class="ba2e1eda-80d1-4275-b094-df799533542c" cx="80.44" cy="46.12" rx="4.17" ry="4.19"/><path d="M81,44.45A29.06147,29.06147,0,0,0,66.74,19.4h.01l-.02-.01c-1.05-.62-13.91-4.79-17.03-9.02a.2114.2114,0,0,0-.38.17,9.14456,9.14456,0,0,0,2.47,4.57.15993.15993,0,0,1-.1.28,29.09226,29.09226,0,0,0-21.34,48.2.14358.14358,0,0,1,.03.14,21.69076,21.69076,0,1,0,42.83,4.76,22.18382,22.18382,0,0,0-.33-3.76.14785.14785,0,0,1,.04-.13A29.12681,29.12681,0,0,0,81,44.45Z"/><path class="ba2e1eda-80d1-4275-b094-df799533542c" d="M72.1,48.92a11.09536,11.09536,0,0,0-20.01-6.69A11.13554,11.13554,0,1,0,40.77,59.82a14.17,14.17,0,1,0,22.14.1A11.16448,11.16448,0,0,0,72.1,48.92Z"/><ellipse cx="60.91" cy="48.74" rx="3.93" ry="3.95"/><ellipse cx="43.16" cy="48.78" rx="3.93" ry="3.95"/><path d="M70.16,68.48s-9.37,8.39-20.33,3.33a.35488.35488,0,0,0-.43.54c1.39,1.73,5.62,4.88,17.75,4.25"/><g class="ead0e6b5-fc37-4b74-b8cf-8bd26576efe8"><path d="M144.80811,34.28662a13.18086,13.18086,0,0,1,2.37841,7.91016,11.53893,11.53893,0,0,1-2.3999,7.6289,12.38532,12.38532,0,0,1-3.95264,2.95313,11.54426,11.54426,0,0,1,5.98633,4.5708,13.71226,13.71226,0,0,1,2.01856,7.59375,15.15547,15.15547,0,0,1-2.30713,8.26172,14.26846,14.26846,0,0,1-9.5249,6.67969,35.89485,35.89485,0,0,1-7.32276.70312H106.335V28.76709h25.043Q140.85547,28.90772,144.80811,34.28662ZM116.6709,37.76709V49.19287h12.59472a10.41428,10.41428,0,0,0,5.48-1.2832q2.10424-1.2832,2.105-4.55274,0-3.62109-2.78321-4.78125a19.51436,19.51436,0,0,0-6.124-.80859Zm0,20.00439V71.58789h12.581a12.2274,12.2274,0,0,0,5.24756-.91406q3.40577-1.6875,3.40576-6.46875a5.56418,5.56418,0,0,0-3.30127-5.55469,13.09727,13.09727,0,0,0-5.17871-.87891Z"/><path d="M189.30371,75.90039q-4.85155,5.98828-14.73047,5.98828-9.87963,0-14.73047-5.98828a22.18555,22.18555,0,0,1-4.85156-14.41992,22.32782,22.32782,0,0,1,4.85156-14.3667q4.85157-6.07764,14.73047-6.07715,9.87891,0,14.73047,6.07715a22.32776,22.32776,0,0,1,4.85156,14.3667A22.1855,22.1855,0,0,1,189.30371,75.90039Zm-8.01562-5.53906q2.35473-3.123,2.35546-8.88086,0-5.75683-2.35546-8.86377a8.90405,8.90405,0,0,0-13.51758,0q-2.373,3.10547-2.37305,8.86377,0,5.75683,2.37305,8.88086a8.87149,8.87149,0,0,0,13.51758,0Z"/><path d="M232.22852,44.46436q3.76172,3.11132,3.76269,10.31835V80.58789H225.72559V57.2793a10.7064,10.7064,0,0,0-.80274-4.64112q-1.46631-2.95312-5.58349-2.95312-5.061,0-6.94532,4.32422a14.9568,14.9568,0,0,0-.977,5.83642V80.58789H201.39746V42.3374h9.70313v5.58985a16.98028,16.98028,0,0,1,3.64062-4.25391,12.61632,12.61632,0,0,1,7.80762-2.32031A14.69177,14.69177,0,0,1,232.22852,44.46436Z"/><path d="M277.26465,75.90039q-4.85157,5.98828-14.73047,5.98828t-14.73047-5.98828a22.18555,22.18555,0,0,1-4.85156-14.41992,22.32782,22.32782,0,0,1,4.85156-14.3667q4.85157-6.07764,14.73047-6.07715,9.87891,0,14.73047,6.07715a22.32782,22.32782,0,0,1,4.85156,14.3667A22.18555,22.18555,0,0,1,277.26465,75.90039ZM269.249,70.36133q2.35548-3.123,2.35547-8.88086,0-5.75683-2.35547-8.86377a8.904,8.904,0,0,0-13.51757,0q-2.37306,3.10547-2.37305,8.86377,0,5.75683,2.37305,8.88086a8.87148,8.87148,0,0,0,13.51757,0Z"/><path d="M328.74609,34.28662a13.18381,13.18381,0,0,1,2.37793,7.91016,11.53874,11.53874,0,0,1-2.39941,7.6289,12.38789,12.38789,0,0,1-3.95313,2.95313,11.5423,11.5423,0,0,1,5.98633,4.5708,13.71226,13.71226,0,0,1,2.01856,7.59375,15.15511,15.15511,0,0,1-2.30664,8.26172,14.268,14.268,0,0,1-9.52539,6.67969,35.88994,35.88994,0,0,1-7.32227.70312H290.27246V28.76709h25.043Q324.793,28.90772,328.74609,34.28662ZM300.6084,37.76709V49.19287h12.59472a10.41611,10.41611,0,0,0,5.48047-1.2832q2.10352-1.2832,2.1045-4.55274,0-3.62109-2.78321-4.78125a19.51012,19.51012,0,0,0-6.124-.80859Zm0,20.00439V71.58789h12.58105a12.22987,12.22987,0,0,0,5.248-.91406q3.40576-1.6875,3.40527-6.46875a5.5645,5.5645,0,0,0-3.30078-5.55469,13.099,13.099,0,0,0-5.17871-.87891Z"/><path d="M351.26855,42.26709V65.36523a12.15116,12.15116,0,0,0,.76954,4.92188q1.36523,2.918,5.35253,2.918,5.10645,0,6.9961-4.14844a15.07829,15.07829,0,0,0,.97949-5.94141V42.26709h10.16016v38.3208h-9.73828V75.17383q-.13917.17579-.70118,1.05469a7.0409,7.0409,0,0,1-1.332,1.54687,13.90063,13.90063,0,0,1-4.54,2.88281,15.43345,15.43345,0,0,1-5.13574.77344q-8.48437,0-11.42871-6.11719-1.64795-3.375-1.64746-9.94922V42.26709Z"/><path d="M405.585,42.88232a12.17034,12.17034,0,0,1,4.39453,4.23633V28.8374h10.16016V80.58789h-9.73828V75.2793a14.13286,14.13286,0,0,1-4.88672,4.957,13.71911,13.71911,0,0,1-6.82031,1.54687,14.24037,14.24037,0,0,1-11.30274-5.43164q-4.58788-5.43164-4.58789-13.93945,0-9.80859,4.51758-15.43408a14.69744,14.69744,0,0,1,12.07617-5.625A12.35952,12.35952,0,0,1,405.585,42.88232Zm2.46094,27.29932a13.97869,13.97869,0,0,0,2.21484-8.19141q0-7.03125-3.55078-10.05517a7.64178,7.64178,0,0,0-5.0625-1.82813,7.03737,7.03737,0,0,0-6.45117,3.32227,15.39493,15.39493,0,0,0-2.05664,8.24463,15.25375,15.25375,0,0,0,2.0918,8.49023,7.0767,7.0767,0,0,0,6.3457,3.18164A7.39751,7.39751,0,0,0,408.0459,70.18164Z"/></g></svg>